<svg width="193" height="172" viewBox="0 0 193 172" fill="none" xmlns="http://www.w3.org/2000/svg">
<g clip-path="url(#clip0_266_20)">
<path d="M177.017 20.5403C173.197 6.23288 158.488 -2.24438 144.18 1.57541L139.02 2.9492C133.291 4.49052 129.906 10.3877 131.448 16.0839L139.657 46.7093L103.369 56.1247L101.258 50.06C99.7502 45.7711 95.6958 42.8895 91.1389 42.8895C86.5819 42.8895 82.5276 45.7711 81.0198 50.06L76.4628 63.1277L32.1667 74.587V61.6534C32.1667 57.1969 28.5814 53.6117 24.125 53.6117C19.6686 53.6117 16.0833 57.1969 16.0833 61.6534V150.112H10.7222C4.79149 150.112 0 154.903 0 160.834C0 166.765 4.79149 171.556 10.7222 171.556H182.278C188.209 171.556 193 166.765 193 160.834C193 154.903 188.209 150.112 182.278 150.112H136.273L113.924 86.281L93.0823 91.6756L102.297 117.945H79.9811L88.7934 92.8148L63.7972 99.2817L46.005 150.112H32.1667V96.7686L145.219 67.4501L153.663 98.9466C155.204 104.676 161.068 108.06 166.798 106.519L171.991 105.145C186.299 101.326 194.776 86.616 190.956 72.3086L177.017 20.5403ZM68.7227 150.112L72.4755 139.389H109.802L113.555 150.112H68.7227Z" fill="#111111"/>
</g>
<defs>
<clipPath id="clip0_266_20">
<rect width="193" height="171.556" fill="white"/>
</clipPath>
</defs>
</svg>
