<svg width="250" height="250" viewBox="0 0 250 250" fill="none" xmlns="http://www.w3.org/2000/svg">
<path d="M50.8125 15.625C40.0313 15.625 31.2813 24.375 31.2813 35.1562L31.25 167.969C31.25 178.75 40 187.5 50.7812 187.5H78.125V163.047C78.1252 157.673 79.2341 152.358 81.3822 147.433C83.5303 142.507 86.6715 138.078 90.6094 134.422L100.797 124.969C99.3 124.821 97.8776 124.244 96.7006 123.307C95.5236 122.371 94.6419 121.115 94.1615 119.689C93.6812 118.264 93.6225 116.73 93.9925 115.272C94.3626 113.814 95.1457 112.494 96.2477 111.47C97.3497 110.447 98.7238 109.763 100.205 109.501C101.686 109.239 103.212 109.41 104.598 109.994C105.984 110.578 107.172 111.55 108.02 112.793C108.867 114.035 109.338 115.496 109.375 117L135 93.2188C139.893 88.6778 146.111 85.8229 152.744 85.0722C159.377 84.3215 166.076 85.7144 171.859 89.0469C171.654 84.0089 169.508 79.2457 165.87 75.7539C162.233 72.2621 157.386 70.3123 152.344 70.3125H144.578C143.542 70.3125 142.549 69.901 141.816 69.1684C141.083 68.4358 140.672 67.4423 140.672 66.4062L140.703 35.1719C140.703 24.3906 131.953 15.625 121.172 15.625H50.8125ZM70.3125 62.5C68.2405 62.5 66.2534 61.6769 64.7882 60.2118C63.3231 58.7466 62.5 56.7595 62.5 54.6875C62.5 52.6155 63.3231 50.6284 64.7882 49.1632C66.2534 47.6981 68.2405 46.875 70.3125 46.875C72.3845 46.875 74.3716 47.6981 75.8368 49.1632C77.3019 50.6284 78.125 52.6155 78.125 54.6875C78.125 56.7595 77.3019 58.7466 75.8368 60.2118C74.3716 61.6769 72.3845 62.5 70.3125 62.5ZM78.125 85.9375C78.125 88.0095 77.3019 89.9966 75.8368 91.4618C74.3716 92.9269 72.3845 93.75 70.3125 93.75C68.2405 93.75 66.2534 92.9269 64.7882 91.4618C63.3231 89.9966 62.5 88.0095 62.5 85.9375C62.5 83.8655 63.3231 81.8784 64.7882 80.4132C66.2534 78.9481 68.2405 78.125 70.3125 78.125C72.3845 78.125 74.3716 78.9481 75.8368 80.4132C77.3019 81.8784 78.125 83.8655 78.125 85.9375ZM70.3125 125C68.2405 125 66.2534 124.177 64.7882 122.712C63.3231 121.247 62.5 119.26 62.5 117.188C62.5 115.115 63.3231 113.128 64.7882 111.663C66.2534 110.198 68.2405 109.375 70.3125 109.375C72.3845 109.375 74.3716 110.198 75.8368 111.663C77.3019 113.128 78.125 115.115 78.125 117.188C78.125 119.26 77.3019 121.247 75.8368 122.712C74.3716 124.177 72.3845 125 70.3125 125ZM109.375 54.6875C109.375 56.7595 108.552 58.7466 107.087 60.2118C105.622 61.6769 103.635 62.5 101.562 62.5C99.4905 62.5 97.5034 61.6769 96.0382 60.2118C94.5731 58.7466 93.75 56.7595 93.75 54.6875C93.75 52.6155 94.5731 50.6284 96.0382 49.1632C97.5034 47.6981 99.4905 46.875 101.562 46.875C103.635 46.875 105.622 47.6981 107.087 49.1632C108.552 50.6284 109.375 52.6155 109.375 54.6875ZM101.562 93.75C99.4905 93.75 97.5034 92.9269 96.0382 91.4618C94.5731 89.9966 93.75 88.0095 93.75 85.9375C93.75 83.8655 94.5731 81.8784 96.0382 80.4132C97.5034 78.9481 99.4905 78.125 101.562 78.125C103.635 78.125 105.622 78.9481 107.087 80.4132C108.552 81.8784 109.375 83.8655 109.375 85.9375C109.375 88.0095 108.552 89.9966 107.087 91.4618C105.622 92.9269 103.635 93.75 101.562 93.75ZM166.875 104.687C163.986 102.008 160.191 100.519 156.25 100.519C152.309 100.519 148.514 102.008 145.625 104.687L101.25 145.891C98.884 148.085 96.9967 150.744 95.7061 153.702C94.4155 156.659 93.7496 159.851 93.75 163.078V218.75C93.75 222.894 95.3962 226.868 98.3265 229.799C101.257 232.729 105.231 234.375 109.375 234.375H132.812C136.957 234.375 140.931 232.729 143.861 229.799C146.791 226.868 148.438 222.894 148.438 218.75V203.125H164.062V218.75C164.062 222.894 165.709 226.868 168.639 229.799C171.569 232.729 175.543 234.375 179.688 234.375H203.125C207.269 234.375 211.243 232.729 214.174 229.799C217.104 226.868 218.75 222.894 218.75 218.75V163.062C218.75 159.836 218.084 156.643 216.794 153.686C215.503 150.728 213.616 148.069 211.25 145.875L166.875 104.687ZM111.875 157.344L156.25 116.125L200.625 157.344C201.412 158.074 202.041 158.959 202.471 159.943C202.901 160.927 203.124 161.989 203.125 163.062V218.75H179.688V203.125C179.688 198.981 178.041 195.007 175.111 192.076C172.181 189.146 168.207 187.5 164.062 187.5H148.438C144.293 187.5 140.319 189.146 137.389 192.076C134.459 195.007 132.812 198.981 132.812 203.125V218.75H109.375V163.062C109.376 161.989 109.599 160.927 110.029 159.943C110.459 158.959 111.088 158.074 111.875 157.344Z" fill="#111111"/>
</svg>
