<svg width="193" height="193" viewBox="0 0 193 193" fill="none" xmlns="http://www.w3.org/2000/svg">
<path d="M176.917 104.542V168.875H160.833V152.792H133.331C127.139 166.945 112.986 176.917 96.5002 176.917C80.0147 176.917 65.8614 166.945 59.6693 152.792H32.1668V168.875H16.0835V104.542H32.1668V120.625H59.7497C63.7706 111.377 71.1689 103.979 80.4168 99.8774V88.4582H64.3335V72.3749H128.667V88.4582H112.583V99.8774C121.831 103.979 129.23 111.377 133.251 120.625H160.833V104.542H176.917ZM136.708 16.0833H56.2918C51.8689 16.0833 48.2502 19.702 48.2502 24.1249C48.2502 28.5478 51.8689 32.1666 56.2918 32.1666H80.4168V40.2083H88.4585V64.3332H104.542V40.2083H112.583V32.1666H136.708C141.131 32.1666 144.75 28.5478 144.75 24.1249C144.75 19.702 141.131 16.0833 136.708 16.0833Z" fill="#111111"/>
</svg>
